HIERARCHY
ROOT pelvis
{
  OFFSET 0 100 0
  CHANNELS 6 Xposition Yposition Zposition Zrotation Xrotation Yrotation
  JOINT pelvis_right_femur
  {
    OFFSET -10.78128 -3.44521 -0.5502486
    CHANNELS 3 Zrotation Xrotation Yrotation
    JOINT right_femur_tibia
    {
      OFFSET -0.8047443 -44.0398 -0.1307829
      CHANNELS 3 Zrotation Xrotation Yrotation
      JOINT right_tibia_foot
      {
        OFFSET 3.006224 -47.83518 -5
        CHANNELS 3 Zrotation Xrotation Yrotation
        End Site
        {
          OFFSET 0 -5 15
        }
      }
    }
  }
  JOINT pelvis_left_femur
  {
    OFFSET 10.78128 -3.44521 -0.5502486
    CHANNELS 3 Zrotation Xrotation Yrotation
    JOINT left_femur_tibia
    {
      OFFSET 0.8047443 -44.0398 -0.1307829
      CHANNELS 3 Zrotation Xrotation Yrotation
      JOINT left_tibia_foot
      {
        OFFSET -4.370144 -48.10324 -4.275266
        CHANNELS 3 Zrotation Xrotation Yrotation
        End Site
        {
          OFFSET 0 -5 15
        }
      }
    }
  }
  JOINT pelvis_spine1
  {
    OFFSET 0 6.468898 -3.129235
    CHANNELS 3 Zrotation Xrotation Yrotation
    JOINT spine1
    {
      OFFSET 0 23.15396 4.99043
      CHANNELS 3 Zrotation Xrotation Yrotation
      JOINT spine2
      {
        OFFSET 0 20.79997 -5.064912
        CHANNELS 3 Zrotation Xrotation Yrotation
        JOINT neck
        {
          OFFSET 0 14.38658 9.616178
          CHANNELS 3 Zrotation Xrotation Yrotation
          End Site
          {
            OFFSET 0 20 0
          }
        }
      }
      JOINT right_manubrium
      {
        OFFSET -5.722621 16.35077 3.967754
        CHANNELS 3 Zrotation Xrotation Yrotation
        JOINT right_clavicle
        {
          OFFSET -13.16364 1.694482 -4.693211
          CHANNELS 3 Zrotation Xrotation Yrotation
          JOINT right_humerus
          {
            OFFSET -28.5034 -0.3100689 -2.792744
            CHANNELS 3 Zrotation Xrotation Yrotation
            JOINT right_radius
            {
              OFFSET -25.15693 0.02248979 -1.271978
              CHANNELS 3 Zrotation Xrotation Yrotation
              End Site
              {
                OFFSET -15 0 0
              }
            }
          }
        }
      }
      JOINT left_manubrium
      {
        OFFSET 5.722621 16.35077 3.967754
        CHANNELS 3 Zrotation Xrotation Yrotation
        JOINT left_clavicle
        {
          OFFSET 13.16364 1.694482 -4.693211
          CHANNELS 3 Zrotation Xrotation Yrotation
          JOINT left_humerus
          {
            OFFSET 29.39168 -1.063119 -2.237045
            CHANNELS 3 Zrotation Xrotation Yrotation
            JOINT left_radius
            {
              OFFSET 24.59957 -0.9528479 0.9047498
              CHANNELS 3 Zrotation Xrotation Yrotation
              End Site
              {
                OFFSET 15 -0 -0
              }
            }
          }
        }
      }
    }
  }
}
MOTION
Frames: 17
Frame Time: 0.0416666666667
-917.1452 105.7122 2121.36 -12.66565 -4.146955 -76.30163 -0.5225405 -2.344014 -7.693321 -0 40.75191 -0 -21.17842 9.962543 5.440831 -5.260981 9.39913 -15.73671 -0 12.95208 -0 -0.1492071 -14.53546 19.67082 -0.3501638 -1.578234 7.109545 -0.5373171 15.23465 -6.416259 -0.4649533 21.1173 5.067126 6.660828 -14.73703 0.9355392 1.667364 -23.35072 12.4708 88.54693 25.04025 -16.60084 -0 0 19.93274 -22.09748 9.178282 6.077595 5.737084 -27.65786 -11.01003 -90.78155 6.546317 24.9695 0 0 -10.94686 14.1231 11.90246 -6.14334
-921.4319 105.6905 2122.716 -11.72414 -3.815755 -75.9688 -0.1908243 -7.70244 -8.34695 -0 33.41196 -0 -19.50799 7.295936 4.353271 -5.147532 11.54718 -14.76658 -0 12.13212 -0 0.1973393 -16.03864 18.7662 -0.4017281 -1.604873 7.00284 -0.4922714 15.4381 -6.75556 -0.5201234 21.05106 5.017118 6.814371 -14.71741 0.6653504 1.640523 -22.93597 12.48805 89.11421 25.00626 -17.71109 -0 0 19.31796 -22.1114 9.091883 5.48998 6.098039 -28.33919 -11.24312 -90.05255 6.246857 23.45794 0 0 -12.97556 14.51983 11.64811 -6.900114
-925.7947 105.2661 2124.019 -10.64526 -3.588329 -75.79022 0.1027762 -11.93228 -8.760153 -0 26.12756 -0 -17.81808 5.055657 3.377461 -5.246499 13.2375 -13.97473 -0 12.01933 -0 0.5707272 -17.41214 18.13524 -0.4770152 -1.654779 6.896233 -0.4492934 15.59263 -7.058425 -0.5756536 20.97746 4.999395 6.975081 -14.70565 0.424598 1.628908 -22.54719 12.49014 89.58482 24.99501 -18.69038 -0 0 18.77974 -22.1589 9.000439 5.005968 6.479688 -28.96598 -11.41145 -89.39651 5.950836 22.04107 0 0 -14.89949 14.85717 11.3873 -7.560707
-930.2467 104.5836 2125.278 -9.456446 -3.367065 -75.71834 0.464524 -15.27 -8.755802 -0 20.30939 -0 -16.29325 3.419544 2.608409 -5.462201 14.46474 -13.47954 -0 12.38225 -0 1.15062 -18.50194 17.87415 -0.5727799 -1.718159 6.784278 -0.4158562 15.69599 -7.311703 -0.6253393 20.90544 5.016475 7.14027 -14.69924 0.2262285 1.641249 -22.181 12.47724 89.94805 25.0186 -19.51249 -0 0 18.31326 -22.23956 8.915736 4.636872 6.870493 -29.51472 -11.51399 -88.82257 5.677235 20.73424 0 0 -16.65375 15.13904 11.14298 -8.122076
-934.7657 103.7776 2126.5 -8.228527 -3.089399 -75.70355 0.9786012 -17.97926 -8.269891 -0 16.39638 -0 -14.99124 2.293916 2.009262 -5.699625 15.26924 -13.25019 -0 13.06349 -0 2.116888 -19.16779 18.00637 -0.6800406 -1.78557 6.671321 -0.3952399 15.75202 -7.506715 -0.6657056 20.84051 5.063284 7.302111 -14.69361 0.07620677 1.681025 -21.84907 12.45351 90.1977 25.07883 -20.15469 -0 0 17.92874 -22.34164 8.848067 4.384528 7.245575 -29.96435 -11.55733 -88.34775 5.441154 19.58838 0 0 -18.15489 15.36405 10.93281 -8.571855
-939.3277 102.9532 2127.689 -7.036529 -2.736654 -75.71096 1.668371 -20.2416 -7.356115 -0 14.19418 -0 -13.92786 1.511245 1.523742 -5.900103 15.70598 -13.1832 -0 13.99757 -0 3.541579 -19.32994 18.45727 -0.7843931 -1.847297 6.566915 -0.3860117 15.77175 -7.643843 -0.6950221 20.78708 5.125843 7.446456 -14.68816 -0.02586377 1.73867 -21.5695 12.42549 90.3471 25.16184 -20.61551 -0 0 17.63364 -22.44606 8.802085 4.233337 7.573457 -30.3032 -11.55704 -87.98261 5.254623 18.65614 0 0 -19.3392 15.53319 10.76924 -8.907313
-943.9255 102.1837 2128.858 -5.941067 -2.317656 -75.72441 2.511351 -22.14783 -6.144201 -0 13.22503 -0 -13.1101 0.937627 1.114417 -6.034756 15.82588 -13.15774 -0 15.2061 -0 5.345993 -18.98202 19.06707 -0.8700156 -1.894991 6.481422 -0.3832942 15.77009 -7.731636 -0.71311 20.74882 5.185692 7.556718 -14.68727 -0.08509802 1.793722 -21.35919 12.39989 90.42722 25.2425 -20.9162 -0 0 17.42551 -22.53315 8.775178 4.154473 7.825411 -30.53152 -11.53393 -87.72621 5.12516 17.97112 0 0 -20.18255 15.65166 10.65785 -9.139807
-948.5723 101.5185 2130.022 -4.98606 -1.850862 -75.74387 3.465704 -23.7167 -4.787408 -0 12.99012 -0 -12.54746 0.5006909 0.7655282 -6.088182 15.6659 -13.07046 -0 16.78576 -0 7.333749 -18.17262 19.63637 -0.9237086 -1.922941 6.423848 -0.3815174 15.76129 -7.781146 -0.7209868 20.72826 5.225788 7.618999 -14.69634 -0.1089321 1.824153 -21.23085 12.38212 90.47211 25.29452 -21.08625 -0 0 17.29689 -22.5876 8.760591 4.117724 7.980203 -30.65684 -11.50834 -87.57186 5.055641 17.55025 0 0 -20.68764 15.72525 10.59832 -9.285129
-953.2981 100.9948 2131.198 -4.201318 -1.354534 -75.78101 4.485777 -24.90692 -3.420443 -0 13.11214 -0 -12.24961 0.1641829 0.4720574 -6.047698 15.23711 -12.85283 -0 18.88823 -0 9.255149 -16.97358 19.9753 -0.9369584 -1.928183 6.401392 -0.3771718 15.7557 -7.799807 -0.7201297 20.72647 5.234638 7.625546 -14.71687 -0.1047744 1.816012 -21.19326 12.37584 90.50375 25.29974 -21.14599 -0 0 17.24425 -22.60031 8.752786 4.102563 8.02416 -30.68666 -11.49548 -87.51603 5.045782 17.4068 0 0 -20.85734 15.75605 10.58805 -9.35096
-958.1384 100.6479 2132.402 -3.603908 -0.8460321 -75.85543 5.523072 -25.62087 -2.13613 -0 13.37787 -0 -12.21559 -0.1117627 0.227409 -5.900913 14.51054 -12.4766 -0 21.68871 -0 10.86278 -15.45456 19.939 -0.906467 -1.91026 6.41978 -0.3700853 15.75822 -7.788122 -0.7119061 20.7427 5.207985 7.575787 -14.74372 -0.07845186 1.768779 -21.25283 12.38306 90.52312 25.25319 -21.0957 -0 0 17.27478 -22.56794 8.75136 4.104101 7.949672 -30.62332 -11.50263 -87.56443 5.093566 17.56148 0 0 -20.67527 15.73982 10.62514 -9.329045
-963.1203 100.5166 2133.645 -3.199416 -0.3479628 -75.99181 6.517744 -25.71495 -0.9842042 -0 13.71329 -0 -12.42227 -0.3940192 0.01738752 -5.639396 13.41043 -11.95158 -0 25.335 -0 11.95283 -13.67531 19.4527 -0.8344699 -1.871466 6.483464 -0.362802 15.76754 -7.739818 -0.6976012 20.77372 5.148993 7.475757 -14.76582 -0.03350568 1.695617 -21.41499 12.40426 90.50875 25.16391 -20.91395 -0 0 17.40884 -22.49153 8.76161 4.134007 7.754974 -30.46268 -11.5275 -87.73294 5.195369 18.04492 0 0 -20.10422 15.66561 10.70818 -9.194227
-968.2489 100.6385 2134.926 -2.988254 0.1016319 -76.21656 7.38945 -25.03094 0.008597293 -0 14.11194 -0 -12.81938 -0.7672085 -0.1770507 -5.265448 11.82802 -11.31438 -0 29.8727 -0 12.40478 -11.69836 18.53424 -0.7291724 -1.817886 6.595387 -0.3580237 15.776 -7.645633 -0.6792176 20.8128 5.067354 7.336264 -14.77047 0.02858665 1.61847 -21.68468 12.43841 90.42286 25.05156 -20.56582 -0 0 17.67728 -22.37479 8.7912 4.216601 7.446045 -30.19771 -11.55779 -88.04289 5.344283 18.88983 0 0 -19.10523 15.51761 10.83238 -8.910804
-973.4992 101.0359 2136.24 -2.979713 0.4413555 -76.55307 8.041448 -23.44864 0.8110732 -0 14.54016 -0 -13.33352 -1.292632 -0.3727641 -4.796518 9.662702 -10.60584 -0 35.16096 -0 12.21961 -9.614462 17.30874 -0.604241 -1.760585 6.756289 -0.3546107 15.77082 -7.500425 -0.6606501 20.84892 4.976788 7.16938 -14.75091 0.107429 1.558028 -22.06594 12.48311 90.2261 24.93796 -20.02117 -0 0 18.11245 -22.22208 8.843968 4.379554 7.039263 -29.82607 -11.57254 -88.51067 5.527494 20.1134 0 0 -17.67337 15.2799 10.98389 -8.446723
-978.8183 101.6963 2137.563 -3.205527 0.5930927 -77.01581 8.390188 -20.93741 1.380657 -0 14.87291 -0 -13.87765 -1.964556 -0.5821449 -4.258712 6.875906 -9.845156 -0 40.81624 -0 11.53019 -7.561742 15.99554 -0.4760131 -1.714858 6.963207 -0.3445879 15.73718 -7.310213 -0.6477911 20.86818 4.891025 6.983672 -14.7141 0.2033305 1.522226 -22.55945 12.53515 89.89691 24.83625 -19.27592 -0 0 18.73368 -22.03684 8.914877 4.641779 6.561663 -29.35731 -11.54628 -89.13534 5.726116 21.69623 0 0 -15.87026 14.94405 11.13834 -7.79235
-984.1378 102.5583 2138.866 -3.711978 0.493113 -77.60478 8.410355 -17.57664 1.693121 -0 14.92096 -0 -14.36191 -2.714254 -0.8182078 -3.666089 3.521484 -9.021056 -0 46.2168 -0 10.5581 -5.714462 14.85292 -0.3591325 -1.695751 7.206897 -0.3152277 15.66182 -7.092065 -0.6460063 20.85884 4.820559 6.78117 -14.68266 0.3192933 1.501769 -23.15778 12.59063 89.44311 24.74559 -18.35933 -0 0 19.53352 -21.82283 8.991429 5.007122 6.046751 -28.81162 -11.45454 -89.89252 5.921222 23.5708 0 0 -13.82163 14.51597 11.26956 -6.972746
-989.3888 103.5135 2140.115 -4.518297 0.1371069 -78.30223 8.159898 -13.5393 1.783416 -0 14.5426 -0 -14.70489 -3.478289 -1.096693 -2.998097 -0.2695982 -8.108085 -0 50.56603 -0 9.534402 -4.233116 14.09383 -0.2636245 -1.712055 7.469891 -0.2569041 15.53485 -6.864229 -0.6560831 20.81779 4.772575 6.559565 -14.68665 0.4637347 1.477546 -23.84017 12.64409 88.89513 24.65701 -17.31831 -0 0 20.47422 -21.59011 9.061207 5.469989 5.528386 -28.20954 -11.27841 -90.74083 6.103345 25.62968 0 0 -11.67288 14.01599 11.36431 -6.042049
-994.5187 104.4219 2141.288 -5.564968 -0.3925127 -79.07267 7.761744 -9.05986 1.753016 -0 13.7464 -0 -14.84192 -4.273091 -1.426835 -2.193914 -4.323482 -7.085361 -0 53.00127 -0 8.632652 -3.198203 13.80812 -0.1951876 -1.764021 7.728479 -0.1706471 15.3505 -6.635157 -0.6727 20.75292 4.752998 6.319035 -14.74966 0.6485522 1.433616 -24.5714 12.68755 88.28803 24.56381 -16.1947 -0 0 21.49729 -21.36128 9.117892 6.025126 5.037427 -27.56444 -11.00833 -91.63523 6.275717 27.74842 0 0 -9.54143 13.47129 11.42898 -5.063136
